<?xml version="1.0" standalone="no"?><!DOCTYPE svg PUBLIC "-//W3C//DTD SVG 1.1//EN" "http://www.w3.org/Graphics/SVG/1.1/DTD/svg11.dtd"><svg t="1591321096020" class="icon" viewBox="0 0 1024 1024" version="1.1" xmlns="http://www.w3.org/2000/svg" p-id="2512" xmlns:xlink="http://www.w3.org/1999/xlink" width="200" height="200"><defs><style type="text/css"></style></defs><path d="M1020.196571 191.311448v637.704828c0 52.672946-18.744749 97.819744-56.118226 135.188177-37.368433 37.373478-82.389123 56.123271-135.188178 56.123271H191.306404c-52.672946 0-97.824788-18.749793-135.193222-56.118226C18.749793 926.83602 0 881.81533 0 829.016276V191.311448c0-52.672946 18.749793-97.824788 56.118227-135.193221C93.48666 18.749793 138.50735 0 191.306404 0h637.704828c52.67799 0 97.824788 18.749793 135.198266 56.118227 37.242325 37.368433 55.992118 82.520276 55.992118 135.188177zM436.334975 433.812808H201.773399a30.26601 30.26601 0 0 0-30.26601 30.26601v90.798029a30.26601 30.26601 0 0 0 30.26601 30.26601h234.561576v234.561576a30.26601 30.26601 0 0 0 30.26601 30.26601h90.79803a30.26601 30.26601 0 0 0 30.26601-30.26601V585.142857H822.226601a30.26601 30.26601 0 0 0 30.26601-30.26601V464.078818a30.26601 30.26601 0 0 0-30.26601-30.26601h-234.561576V199.251232a30.26601 30.26601 0 0 0-30.26601-30.26601h-90.79803a30.26601 30.26601 0 0 0-30.26601 30.26601V433.812808z"  p-id="2513"></path></svg>
