<?xml version="1.0" standalone="no"?><!DOCTYPE svg PUBLIC "-//W3C//DTD SVG 1.1//EN" "http://www.w3.org/Graphics/SVG/1.1/DTD/svg11.dtd"><svg t="1626675857791" class="icon" viewBox="0 0 1024 1024" version="1.1" xmlns="http://www.w3.org/2000/svg" p-id="2385" xmlns:xlink="http://www.w3.org/1999/xlink" width="200" height="200"><defs><style type="text/css"></style></defs><path d="M512 1024c-282.304 0-512-229.696-512-512 0-282.304 229.696-512 512-512 282.304 0 512 229.696 512 512C1024 794.304 794.304 1024 512 1024L512 1024zM512 48.768C256.576 48.768 48.768 256.576 48.768 512c0 255.424 207.808 463.168 463.232 463.168 255.424 0 463.168-207.744 463.168-463.168C975.168 256.576 767.424 48.768 512 48.768L512 48.768zM512 48.768" p-id="2386" ></path><path d="M425.728 750.784 206.528 531.648l45.248-45.312 173.952 173.952 346.496-346.496 45.248 45.248L425.728 750.784zM425.728 750.784" p-id="2387" ></path></svg>
