<?xml version="1.0" standalone="no"?><!DOCTYPE svg PUBLIC "-//W3C//DTD SVG 1.1//EN" "http://www.w3.org/Graphics/SVG/1.1/DTD/svg11.dtd"><svg t="1652430249412" class="icon" viewBox="0 0 1024 1024" version="1.1" xmlns="http://www.w3.org/2000/svg" p-id="60277" xmlns:xlink="http://www.w3.org/1999/xlink" width="200" height="200"><defs><style type="text/css">@font-face { font-family: feedback-iconfont; src: url("//at.alicdn.com/t/font_1031158_u69w8yhxdu.woff2?t=1630033759944") format("woff2"), url("//at.alicdn.com/t/font_1031158_u69w8yhxdu.woff?t=1630033759944") format("woff"), url("//at.alicdn.com/t/font_1031158_u69w8yhxdu.ttf?t=1630033759944") format("truetype"); }
</style></defs><path d="M942.545455 0h-861.09091C37.236364 0 0 37.236364 0 81.454545v605.09091C0 730.763636 37.236364 768 81.454545 768H372.363636v186.181818H174.545455c-18.618182 0-34.909091 16.290909-34.909091 34.909091S155.927273 1024 174.545455 1024h674.90909c18.618182 0 34.909091-16.290909 34.909091-34.909091s-16.290909-34.909091-34.909091-34.909091H651.636364v-186.181818h290.909091c44.218182 0 81.454545-37.236364 81.454545-81.454545v-605.09091C1024 37.236364 986.763636 0 942.545455 0zM581.818182 954.181818h-139.636364v-186.181818h139.636364v186.181818z m372.363636-267.636363c0 6.981818-4.654545 11.636364-11.636363 11.636363h-861.09091c-6.981818 0-11.636364-4.654545-11.636363-11.636363v-605.09091c0-6.981818 4.654545-11.636364 11.636363-11.636363h861.09091c6.981818 0 11.636364 4.654545 11.636363 11.636363v605.09091z" p-id="60278" fill="#8a8a8a"></path><path d="M740.072727 300.218182l-37.236363-30.254546c-6.981818-6.981818-16.290909-11.636364-25.6-13.963636L423.563636 153.6c-9.309091-4.654545-20.945455-2.327273-27.927272 4.654545l-76.8 88.436364h-27.927273c-6.981818 0-11.636364 4.654545-11.636364 11.636364v60.509091c0 6.981818 4.654545 11.636364 11.636364 11.636363h60.509091c4.654545 0 9.309091-4.654545 11.636363-9.309091h37.236364v230.4h-39.563636c-4.654545 0-6.981818 2.327273-9.309091 4.654546l-23.272727 44.218182c-4.654545 6.981818 2.327273 16.290909 9.30909 16.290909h274.618182c9.309091 0 13.963636-13.963636 6.981818-18.618182l-58.181818-44.218182c-2.327273-2.327273-4.654545-2.327273-6.981818-2.327273h-76.8v-230.4h186.181818V418.909091c0 4.654545 2.327273 6.981818 6.981818 6.981818 11.636364 0 20.945455 11.636364 20.945455 25.6 0 9.309091-9.309091 18.618182-18.618182 18.618182-11.636364 2.327273-20.945455-4.654545-23.272727-16.290909 0-4.654545-4.654545-4.654545-9.309091-4.654546s-6.981818 4.654545-4.654545 9.309091c4.654545 16.290909 18.618182 27.927273 37.236363 25.6 18.618182 0 32.581818-16.290909 34.909091-34.909091 2.327273-18.618182-11.636364-34.909091-27.927273-39.563636v-90.763636h53.527273c9.309091 2.327273 13.963636-9.309091 6.981818-18.618182zM637.672727 256h-162.909091l-48.872727-86.109091 211.781818 86.109091z m-223.418182-76.8l41.89091 76.8h-41.89091V179.2z m0 93.090909h48.872728v34.909091h-48.872728v-34.909091z m48.872728 48.872727v32.581819l-34.909091-32.581819h34.909091z m-48.872728 9.309091l39.563637 34.909091-39.563637 34.909091v-69.818182z m48.872728 46.545455v72.145454l-39.563637-34.909091 39.563637-37.236363z m-48.872728 48.872727l37.236364 34.909091-37.236364 34.909091v-69.818182z m48.872728 46.545455v69.818181l-39.563637-32.581818 39.563637-37.236363z m-48.872728 46.545454l37.236364 32.581818h-37.236364v-32.581818zM349.090909 316.509091h-53.527273v-53.527273H349.090909v53.527273z m2.327273-69.818182h-11.636364l60.509091-69.818182V256h-37.236364c0-4.654545-4.654545-9.309091-11.636363-9.309091z m11.636363 60.509091v-34.909091h34.909091v34.909091h-34.909091z m188.509091 258.327273l46.545455 34.909091h-256l18.618182-34.909091h190.836363z m-74.472727-258.327273v-34.909091h190.836364c9.309091 0 18.618182 2.327273 23.272727 9.309091l30.254545 25.6H477.090909z" p-id="60279" fill="#8a8a8a"></path></svg>