<?xml version="1.0" standalone="no"?><!DOCTYPE svg PUBLIC "-//W3C//DTD SVG 1.1//EN" "http://www.w3.org/Graphics/SVG/1.1/DTD/svg11.dtd"><svg t="1652422667858" class="icon" viewBox="0 0 1024 1024" version="1.1" xmlns="http://www.w3.org/2000/svg" p-id="37413" xmlns:xlink="http://www.w3.org/1999/xlink" width="200" height="200"><defs><style type="text/css">@font-face { font-family: feedback-iconfont; src: url("//at.alicdn.com/t/font_1031158_u69w8yhxdu.woff2?t=1630033759944") format("woff2"), url("//at.alicdn.com/t/font_1031158_u69w8yhxdu.woff?t=1630033759944") format("woff"), url("//at.alicdn.com/t/font_1031158_u69w8yhxdu.ttf?t=1630033759944") format("truetype"); }
</style></defs><path d="M925.240889 989.354667h-295.253333a50.915556 50.915556 0 0 1-50.915556-50.915556v-81.464889c0-28.103111 22.812444-50.915556 50.915556-50.915555h33.450666l56.092445-97.166223a91.591111 91.591111 0 1 1 116.508444-0.227555l55.921778 97.393778h33.28c28.103111 0 50.915556 22.812444 50.915555 50.915555v81.464889a50.915556 50.915556 0 0 1-50.915555 50.915556z m-147.683556-381.781334a30.492444 30.492444 0 1 0-0.056889 61.041778 30.492444 30.492444 0 0 0 0.056889-61.041778z m0.341334 122.368l-43.975111 76.174223h87.722666l-43.747555-76.174223z m137.159111 157.582223a20.366222 20.366222 0 0 0-20.366222-20.366223H660.48a20.366222 20.366222 0 0 0-20.366222 20.366223v20.366222c0 11.264 9.102222 20.366222 20.366222 20.366222h234.154667c11.264 0 20.366222-9.102222 20.366222-20.366222v-20.366222zM475.420444 651.377778a30.549333 30.549333 0 1 1 0 60.984889h-225.28a30.549333 30.549333 0 1 1 0-60.984889h225.28zM219.648 386.616889c0-16.839111 13.653333-30.492444 30.492444-30.492445h456.192a30.549333 30.549333 0 1 1 0 60.984889H250.140444a30.492444 30.492444 0 0 1-30.492444-30.492444z m371.655111 178.176H250.140444a30.606222 30.606222 0 0 1-30.492444-30.492445v-0.056888c0-16.839111 13.653333-30.492444 30.492444-30.492445h341.105778a30.321778 30.321778 0 0 1 30.492445 30.492445v0.056888a30.606222 30.606222 0 0 1-30.435556 30.492445z m268.743111-61.098667a30.492444 30.492444 0 0 1-30.549333-30.549333V160.597333a20.366222 20.366222 0 0 0-20.366222-20.366222H147.342222a20.366222 20.366222 0 0 0-20.366222 20.366222v747.292445c0 11.264 9.102222 20.366222 20.366222 20.366222h343.096889a30.549333 30.549333 0 0 1 0 61.098667H116.792889a50.915556 50.915556 0 0 1-50.915556-50.915556V130.048c0-28.103111 22.812444-50.915556 50.915556-50.915556H839.68c28.103111 0 50.915556 22.812444 50.915556 50.915556v343.096889c0 16.896-13.653333 30.549333-30.549334 30.549333z m0 0" p-id="37414" fill="#8a8a8a"></path></svg>