<?xml version="1.0" standalone="no"?><!DOCTYPE svg PUBLIC "-//W3C//DTD SVG 1.1//EN" "http://www.w3.org/Graphics/SVG/1.1/DTD/svg11.dtd"><svg t="1652429807454" class="icon" viewBox="0 0 1024 1024" version="1.1" xmlns="http://www.w3.org/2000/svg" p-id="53807" xmlns:xlink="http://www.w3.org/1999/xlink" width="200" height="200"><defs><style type="text/css">@font-face { font-family: feedback-iconfont; src: url("//at.alicdn.com/t/font_1031158_u69w8yhxdu.woff2?t=1630033759944") format("woff2"), url("//at.alicdn.com/t/font_1031158_u69w8yhxdu.woff?t=1630033759944") format("woff"), url("//at.alicdn.com/t/font_1031158_u69w8yhxdu.ttf?t=1630033759944") format("truetype"); }
</style></defs><path d="M827.857455 112.64h-31.604364v92.811636h3.165091c34.909091 0 63.162182 28.625455 63.162182 64v597.131637c0 35.328-28.253091 64-63.162182 64H224.581818c-34.909091 0-63.162182-28.672-63.162182-64V269.358545c0-35.328 28.253091-63.953455 63.162182-63.953454V112.64h-28.392727C126.324364 112.64 69.818182 169.937455 69.818182 240.64v655.36C69.818182 966.702545 126.370909 1024 196.142545 1024h631.71491C897.629091 1024 954.181818 966.702545 954.181818 896V240.64c0-70.702545-56.552727-128-126.324363-128zM480.349091 664.948364h157.928727c31.604364 0 47.383273 16.011636 47.383273 48.034909 0 31.976727-15.825455 47.941818-47.383273 47.941818H480.395636c-31.557818 0-47.336727-15.965091-47.336727-47.941818 0-32.023273 15.778909-48.034909 47.336727-48.034909z m47.383273-175.988364v224.023273c0 31.976727-15.778909 47.941818-47.383273 47.941818-31.557818 0-47.336727-15.965091-47.336727-47.941818v-224.023273c0-32.023273 15.778909-47.988364 47.336727-47.988364 31.604364 0 47.383273 16.011636 47.383273 47.988364zM701.486545 0H290.909091C256 0 227.746909 28.672 227.746909 64V256c0 35.374545 28.253091 64 63.162182 64h442.181818c34.909091 0 63.162182-28.672 63.162182-64V64C796.253091 28.625455 768 0 733.090909 0h-31.604364z m0 224.023273H322.56v-128h378.973091v128z" fill="#8a8a8a" p-id="53808"></path></svg>