<?xml version="1.0" standalone="no"?><!DOCTYPE svg PUBLIC "-//W3C//DTD SVG 1.1//EN" "http://www.w3.org/Graphics/SVG/1.1/DTD/svg11.dtd"><svg
  t="1652430017465" class="icon" viewBox="0 0 1024 1024" version="1.1" xmlns="http://www.w3.org/2000/svg" p-id="56671"
  xmlns:xlink="http://www.w3.org/1999/xlink" width="200" height="200">
  <defs>
    <style type="text/css">@font-face { font-family: feedback-iconfont; src:
      url("//at.alicdn.com/t/font_1031158_u69w8yhxdu.woff2?t=1630033759944") format("woff2"),
      url("//at.alicdn.com/t/font_1031158_u69w8yhxdu.woff?t=1630033759944") format("woff"),
      url("//at.alicdn.com/t/font_1031158_u69w8yhxdu.ttf?t=1630033759944") format("truetype"); }
    </style>
  </defs>
  <path
    d="M449.83816 1023.99992h-0.419998a46.759782 46.759782 0 0 1-22.999893-5.999972L23.360151 785.221035A46.859781 46.859781 0 0 1 0.00026 744.521225V279.443396a46.779782 46.779782 0 0 1 23.339891-40.559811L426.25827 6.224671a47.019781 47.019781 0 0 1 46.759782 0l402.878119 232.618914a46.839781 46.839781 0 0 1 23.379891 40.69981v465.097829a46.819781 46.819781 0 0 1-23.379891 40.579811L473.018052 1017.839949a47.11978 47.11978 0 0 1-23.179892 6.159971z m-1.99999-974.255452L48.480034 282.363382l1.739992 462.277842 399.418135 228.678933 401.138128-231.598919-1.719992-462.277842z m1.859991 694.196759h-0.519998a47.419779 47.419779 0 0 1-21.779898-5.699973l-161.999244-93.459564a45.579787 45.579787 0 0 1-22.759894-39.699815v-186.23913a45.499788 45.499788 0 0 1 22.759894-39.519816L426.838268 286.003365a45.639787 45.639787 0 0 1 45.559787 0l161.439246 93.199565a45.639787 45.639787 0 0 1 22.779894 39.579815v186.219131a45.699787 45.699787 0 0 1-22.779894 39.519815l-161.379246 93.579564a48.919772 48.919772 0 0 1-22.699894 5.899972z m-156.819268-141.33934l156.979267 90.579577 156.47927-90.779576v-181.119155l-156.699269-90.499577-156.759268 90.679577z m-14.179934 29.739861a21.699899 21.699899 0 0 1-12.75994-39.119817l170.919202-126.179411a21.659899 21.659899 0 1 1 25.75988 34.819837L291.238901 628.001769a21.539899 21.539899 0 0 1-12.539942 4.319979zM449.638161 996.000051a27.999869 27.999869 0 0 1-17.759917-6.139972 19.099911 19.099911 0 0 1-7.359966-14.659931V718.301347c0-11.519946 11.239948-20.719903 25.119883-20.719903s25.099883 9.299957 25.099883 20.719903v257.0188a19.019911 19.019911 0 0 1-7.339966 14.619932 27.999869 27.999869 0 0 1-17.759917 5.999972z m170.939202-363.738302a21.679899 21.679899 0 0 1-12.939939-4.25998l-170.739203-126.159412a21.639899 21.639899 0 0 1-8.859959-17.519918v-169.619208a21.639899 21.639899 0 0 1 43.279798 0v158.759259l161.999244 119.659441a21.739899 21.739899 0 0 1-12.759941 39.119818zM12.380202 286.923361L38.50008 244.003561l253.998815 154.599278-26.119878 42.8998zM864.776223 244.003561l26.099878 42.9198L636.137291 442.002637l-26.119879-42.8998z"
    p-id="56672"></path>
</svg>
