<?xml version="1.0" standalone="no"?><!DOCTYPE svg PUBLIC "-//W3C//DTD SVG 1.1//EN" "http://www.w3.org/Graphics/SVG/1.1/DTD/svg11.dtd"><svg t="1621138600578" class="icon" viewBox="0 0 1024 1024" version="1.1" xmlns="http://www.w3.org/2000/svg" p-id="6479" xmlns:xlink="http://www.w3.org/1999/xlink" width="200" height="200"><defs><style type="text/css"></style></defs><path d="M199.83251064 607.21892766a30.1709617 30.1709617 0 0 0-3.81712341 8.83690213l-50.61610212 223.79846808a31.37361702 31.37361702 0 0 0 30.27554042 38.17123404 29.33433191 29.33433191 0 0 0 6.90219575-1.04578723l224.84425532-50.9298383a32.52398298 32.52398298 0 0 0 8.15714042-3.29422978zM922.62835745 279.05089362L744.58308085 101.00561702a31.37361702 31.37361702 0 0 0-44.02764255 0L222.83982979 578.61664681l222.02062978 222.02062979 477.66331915-477.61102979a31.37361702 31.37361702 0 0 0 0.10457873-43.97535319z m-136.31836596 55.74045957l-320.27234043 320.27234043a22.22297872 22.22297872 0 0 1-31.37361702-31.37361702l320.22005107-320.32462979a22.22297872 22.22297872 0 0 1 31.37361702 31.37361702z" p-id="6480"></path></svg>