<svg xmlns="http://www.w3.org/2000/svg" viewBox="0 0 200 200"><path d="M23.4 22.6v154.9h154.9V22.6H23.4zm0-19.4h154.9c10.7 0 19.4 8.7 19.4 19.4v154.9c0 10.7-8.7 19.4-19.4 19.4H23.4c-10.7 0-19.4-8.7-19.4-19.4V22.6c.1-10.7 8.7-19.4 19.4-19.4z"/><path d="M76.8 102.6l-53.7 75.2-11.9-15.1 53-75.8c4.6-6.6 13.6-8.2 20.2-3.6.6.4 1.2.9 1.7 1.4l97.7 93-13.4 14-93.6-89.1z"/><path d="M161.7 135.1L146 156.9l-15.7-11.3 18.9-26.4c4.7-6.5 13.7-8 20.3-3.3 1 .7 1.8 1.5 2.6 2.4l23.9 22.6-10.1 16.3-24.2-22.1zm-51.1-54.5c0 8 6.5 14.5 14.5 14.5s14.5-6.5 14.5-14.5-6.5-14.5-14.5-14.5-14.5 6.5-14.5 14.5z"/></svg>