<?xml version="1.0" standalone="no"?><!DOCTYPE svg PUBLIC "-//W3C//DTD SVG 1.1//EN" "http://www.w3.org/Graphics/SVG/1.1/DTD/svg11.dtd"><svg t="1626683136962" class="icon" viewBox="0 0 1024 1024" version="1.1" xmlns="http://www.w3.org/2000/svg" p-id="2958" xmlns:xlink="http://www.w3.org/1999/xlink" width="200" height="200"><defs><style type="text/css"></style></defs><path d="M512 102.4c225.28 0 409.6 184.32 409.6 409.6s-184.32 409.6-409.6 409.6-409.6-184.32-409.6-409.6 184.32-409.6 409.6-409.6m0-102.4C230.4 0 0 230.4 0 512s230.4 512 512 512 512-230.4 512-512S793.6 0 512 0z" p-id="2959" fill="#ffffff"></path><path d="M583.68 512l107.52-107.52c20.48-20.48 20.48-51.2 0-71.68s-51.2-20.48-71.68 0L512 440.32 404.48 332.8c-20.48-20.48-51.2-20.48-71.68 0-20.48 20.48-20.48 51.2 0 71.68L440.32 512l-107.52 107.52c-20.48 20.48-20.48 51.2 0 71.68 20.48 20.48 51.2 20.48 71.68 0l107.52-107.52 107.52 107.52c20.48 20.48 51.2 20.48 71.68 0s20.48-51.2 0-71.68L583.68 512z" p-id="2960" fill="#ffffff"></path></svg>