<?xml version="1.0" standalone="no"?><!DOCTYPE svg PUBLIC "-//W3C//DTD SVG 1.1//EN"
  "http://www.w3.org/Graphics/SVG/1.1/DTD/svg11.dtd">
<svg t="1652422884784" class="icon" viewBox="0 0 1024 1024" version="1.1" xmlns="http://www.w3.org/2000/svg"
     p-id="47703" xmlns:xlink="http://www.w3.org/1999/xlink" width="200" height="200">
  <defs>
    <style type="text/css">@font-face { font-family: feedback-iconfont; src:
      url("//at.alicdn.com/t/font_1031158_u69w8yhxdu.woff2?t=1630033759944") format("woff2"),
      url("//at.alicdn.com/t/font_1031158_u69w8yhxdu.woff?t=1630033759944") format("woff"),
      url("//at.alicdn.com/t/font_1031158_u69w8yhxdu.ttf?t=1630033759944") format("truetype"); }
    </style>
  </defs>
  <path
    d="M551.59208 941.368599c-20.137351 10.921953-34.813726 15.802701-47.510496 15.8027-12.765033 0-27.031834-4.812486-47.544627-16.178143-342.437361-189.188706-341.311034-292.810736-337.078778-678.35568 0.409573-38.329229 0.853278-79.252422 1.023934-123.076759a2810.423319 2810.423319 0 0 1 168.91483-44.097386c64.610179-14.84703 136.490283-24.43787 213.558315-28.567734 146.661351 16.280536 259.191599 37.714869 381.039638 72.869906 0.204787 49.524231 0.853278 95.25991 1.399376 137.65074 5.324452 387.524548 6.621434 479.610265-333.802192 663.918224M952.222972 276.494704c-0.682622-49.148789-1.399375-102.837015-1.5359-161.781431a33.346088 33.346088 0 0 0-23.789379-31.912581C790.816984 42.014023 669.344387 18.053988 507.562957 0.203421a36.008314 36.008314 0 0 0-5.358584-0.136524C420.187332 4.299154 343.597136 14.504354 274.413389 30.375317A2814.007085 2814.007085 0 0 0 77.272136 82.868954a33.380219 33.380219 0 0 0-23.550462 31.912582c0 53.039735-0.546098 101.881344-1.023933 147.105055-4.232257 384.998847-5.802288 529.066234 371.551192 737.573146 31.093435 17.167945 54.985208 24.506132 79.832651 24.506132 24.403739 0 48.87574-7.372318 79.354815-23.891773 375.885842-203.557901 374.247549-324.108958 368.752442-723.579392m-214.002019 14.881161l-301.104594 302.19679-147.787678-148.299645a44.54109 44.54109 0 0 0-63.074279 62.869493l179.324817 179.973308a44.609352 44.609352 0 0 0 63.07428-0.034131l332.641734-333.904585a44.506959 44.506959 0 1 0-63.07428-62.80123"
    p-id="47704"></path>
</svg>
