{"accessors":[{"name":"TSX000002_low_1_0_positions","componentType":5126,"count":576,"min":[-14.097399711608887,0,-0.17440000176429749],"max":[0.15850000083446503,7.282599925994873,0.1476999968290329],"type":"VEC3","bufferView":0,"byteOffset":0},{"name":"TSX000002_low_1_0_normals","componentType":5126,"count":576,"min":[-1,-1,-1],"max":[1,1,1],"type":"VEC3","bufferView":1,"byteOffset":0},{"name":"TSX000002_low_1_0_texcoords","componentType":5126,"count":576,"min":[-10.1697998046875,-76.4030990600586],"max":[10.1697998046875,11.1697998046875],"type":"VEC2","bufferView":2,"byteOffset":0},{"name":"TSX000002_low_1_0_indices","componentType":5123,"count":1680,"min":[0],"max":[575],"type":"SCALAR","bufferView":3,"byteOffset":0},{"name":"TSX000002_low_1_1_positions","componentType":5126,"count":20,"min":[-4.934000015258789,5.48769998550415,0.049400001764297485],"max":[-1.5210000276565552,7.509500026702881,0.08500000089406967],"type":"VEC3","bufferView":0,"byteOffset":6912},{"name":"TSX000002_low_1_1_normals","componentType":5126,"count":20,"min":[-1,-1,0],"max":[1,1,1],"type":"VEC3","bufferView":1,"byteOffset":6912},{"name":"TSX000002_low_1_1_texcoords","componentType":5126,"count":20,"min":[0.0005000000237487257,0.0005000000237487257],"max":[0.9994999766349792,0.9994999766349792],"type":"VEC2","bufferView":2,"byteOffset":4608},{"name":"TSX000002_low_1_1_indices","componentType":5123,"count":30,"min":[0],"max":[19],"type":"SCALAR","bufferView":3,"byteOffset":3360},{"name":"TSX000002_low_1_2_positions","componentType":5126,"count":20,"min":[-14.411199569702148,3.0880000591278076,0.049400001764297485],"max":[-1.5210000276565552,7.563199996948242,0.1468999981880188],"type":"VEC3","bufferView":0,"byteOffset":7152},{"name":"TSX000002_low_1_2_normals","componentType":5126,"count":20,"min":[0,0,-1],"max":[0,0,-1],"type":"VEC3","bufferView":1,"byteOffset":7152},{"name":"TSX000002_low_1_2_texcoords","componentType":5126,"count":20,"min":[0.0005000000237487257,0],"max":[0.9994999766349792,1],"type":"VEC2","bufferView":2,"byteOffset":4768},{"name":"TSX000002_low_1_2_indices","componentType":5123,"count":30,"min":[0],"max":[19],"type":"SCALAR","bufferView":3,"byteOffset":3420},{"name":"TSX000002_low_1_3_positions","componentType":5126,"count":20,"min":[-11.930500030517578,5.48769998550415,0.049400001764297485],"max":[-7.712100028991699,7.563199996948242,0.08500000089406967],"type":"VEC3","bufferView":0,"byteOffset":7392},{"name":"TSX000002_low_1_3_normals","componentType":5126,"count":20,"min":[-1,-1,0],"max":[1,1,1],"type":"VEC3","bufferView":1,"byteOffset":7392},{"name":"TSX000002_low_1_3_texcoords","componentType":5126,"count":20,"min":[0.0005000000237487257,0.0005000000237487257],"max":[0.9994999766349792,0.9994999766349792],"type":"VEC2","bufferView":2,"byteOffset":4928},{"name":"TSX000002_low_1_3_indices","componentType":5123,"count":30,"min":[0],"max":[19],"type":"SCALAR","bufferView":3,"byteOffset":3480},{"name":"TSX000002_low_1_4_positions","componentType":5126,"count":20,"min":[-6.672800064086914,5.48769998550415,0.049400001764297485],"max":[-5.967700004577637,7.563199996948242,0.08500000089406967],"type":"VEC3","bufferView":0,"byteOffset":7632},{"name":"TSX000002_low_1_4_normals","componentType":5126,"count":20,"min":[-1,-1,0],"max":[1,1,1],"type":"VEC3","bufferView":1,"byteOffset":7632},{"name":"TSX000002_low_1_4_texcoords","componentType":5126,"count":20,"min":[0.0005000000237487257,0.0005000000237487257],"max":[0.9994999766349792,0.9994999766349792],"type":"VEC2","bufferView":2,"byteOffset":5088},{"name":"TSX000002_low_1_4_indices","componentType":5123,"count":30,"min":[0],"max":[19],"type":"SCALAR","bufferView":3,"byteOffset":3540},{"name":"TSX000002_low_1_5_positions","componentType":5126,"count":20,"min":[-13.24530029296875,5.48769998550415,0.049400001764297485],"max":[-12.037699699401855,7.563199996948242,0.08500000089406967],"type":"VEC3","bufferView":0,"byteOffset":7872},{"name":"TSX000002_low_1_5_normals","componentType":5126,"count":20,"min":[-1,-1,0],"max":[1,1,1],"type":"VEC3","bufferView":1,"byteOffset":7872},{"name":"TSX000002_low_1_5_texcoords","componentType":5126,"count":20,"min":[0.0005000000237487257,0.0005000000237487257],"max":[0.9994999766349792,0.9994999766349792],"type":"VEC2","bufferView":2,"byteOffset":5248},{"name":"TSX000002_low_1_5_indices","componentType":5123,"count":30,"min":[0],"max":[19],"type":"SCALAR","bufferView":3,"byteOffset":3600},{"name":"TSX000002_low_1_6_positions","componentType":5126,"count":20,"min":[-14.411199569702148,3.0880000591278076,0.1468999981880188],"max":[-13.47760009765625,4.692599773406982,0.17440000176429749],"type":"VEC3","bufferView":0,"byteOffset":8112},{"name":"TSX000002_low_1_6_normals","componentType":5126,"count":20,"min":[-1,-1,0],"max":[1,1,1],"type":"VEC3","bufferView":1,"byteOffset":8112},{"name":"TSX000002_low_1_6_texcoords","componentType":5126,"count":20,"min":[0.0005000000237487257,0.0005000000237487257],"max":[0.9994999766349792,0.9994999766349792],"type":"VEC2","bufferView":2,"byteOffset":5408},{"name":"TSX000002_low_1_6_indices","componentType":5123,"count":30,"min":[0],"max":[19],"type":"SCALAR","bufferView":3,"byteOffset":3660}],"asset":{"generator":"obj2gltf","version":"2.0"},"buffers":[{"name":"TSX000002_low","byteLength":224212,"uri":"data:application/octet-stream;base64,"}],"bufferViews":[{"name":"bufferView_0","buffer":0,"byteLength":8352,"byteOffset":0,"byteStride":12,"target":34962},{"name":"bufferView_1","buffer":0,"byteLength":8352,"byteOffset":8352,"byteStride":12,"target":34962},{"name":"bufferView_2","buffer":0,"byteLength":5568,"byteOffset":16704,"byteStride":8,"target":34962},{"name":"bufferView_3","buffer":0,"byteLength":3720,"byteOffset":22272,"target":34963},{"buffer":0,"byteOffset":25992,"byteLength":29144},{"buffer":0,"byteOffset":55136,"byteLength":55568},{"buffer":0,"byteOffset":110704,"byteLength":40572},{"buffer":0,"byteOffset":151276,"byteLength":21455},{"buffer":0,"byteOffset":172731,"byteLength":23702},{"buffer":0,"byteOffset":196433,"byteLength":27776}],"images":[{"name":"06_1","mimeType":"image/jpeg","bufferView":4},{"name":"01_6","mimeType":"image/jpeg","bufferView":5},{"name":"06_3","mimeType":"image/jpeg","bufferView":6},{"name":"06_2","mimeType":"image/jpeg","bufferView":7},{"name":"06_4","mimeType":"image/jpeg","bufferView":8},{"name":"06_5","mimeType":"image/jpeg","bufferView":9}],"materials":[{"name":"08___Default","pbrMetallicRoughness":{"baseColorFactor":[0.8431,0.8431,0.8431,1],"metallicFactor":0,"roughnessFactor":0.99},"emissiveFactor":[0,0,0],"alphaMode":"OPAQUE","doubleSided":false},{"name":"Material__1796901446","pbrMetallicRoughness":{"baseColorTexture":{"index":0},"baseColorFactor":[1,1,1,1],"metallicFactor":0,"roughnessFactor":0.99},"emissiveFactor":[0,0,0],"alphaMode":"OPAQUE","doubleSided":false},{"name":"Material__63","pbrMetallicRoughness":{"baseColorTexture":{"index":1},"baseColorFactor":[1,1,1,1],"metallicFactor":0,"roughnessFactor":0.99},"emissiveFactor":[0,0,0],"alphaMode":"OPAQUE","doubleSided":false},{"name":"Material__1796901470","pbrMetallicRoughness":{"baseColorTexture":{"index":2},"baseColorFactor":[1,1,1,1],"metallicFactor":0,"roughnessFactor":0.99},"emissiveFactor":[0,0,0],"alphaMode":"OPAQUE","doubleSided":false},{"name":"Material__1796901458","pbrMetallicRoughness":{"baseColorTexture":{"index":3},"baseColorFactor":[1,1,1,1],"metallicFactor":0,"roughnessFactor":0.99},"emissiveFactor":[0,0,0],"alphaMode":"OPAQUE","doubleSided":false},{"name":"Material__1796901482","pbrMetallicRoughness":{"baseColorTexture":{"index":4},"baseColorFactor":[1,1,1,1],"metallicFactor":0,"roughnessFactor":0.99},"emissiveFactor":[0,0,0],"alphaMode":"OPAQUE","doubleSided":false},{"name":"Material__1796901495","pbrMetallicRoughness":{"baseColorTexture":{"index":5},"baseColorFactor":[1,1,1,1],"metallicFactor":0,"roughnessFactor":0.99},"emissiveFactor":[0,0,0],"alphaMode":"OPAQUE","doubleSided":false}],"meshes":[{"name":"TSX000002_low_1","primitives":[{"attributes":{"POSITION":0,"NORMAL":1,"TEXCOORD_0":2},"indices":3,"material":0,"mode":4},{"attributes":{"POSITION":4,"NORMAL":5,"TEXCOORD_0":6},"indices":7,"material":1,"mode":4},{"attributes":{"POSITION":8,"NORMAL":9,"TEXCOORD_0":10},"indices":11,"material":2,"mode":4},{"attributes":{"POSITION":12,"NORMAL":13,"TEXCOORD_0":14},"indices":15,"material":3,"mode":4},{"attributes":{"POSITION":16,"NORMAL":17,"TEXCOORD_0":18},"indices":19,"material":4,"mode":4},{"attributes":{"POSITION":20,"NORMAL":21,"TEXCOORD_0":22},"indices":23,"material":5,"mode":4},{"attributes":{"POSITION":24,"NORMAL":25,"TEXCOORD_0":26},"indices":27,"material":6,"mode":4}]}],"nodes":[{"name":"TSX000002_low","mesh":0}],"samplers":[{"magFilter":9729,"minFilter":9986,"wrapS":10497,"wrapT":10497}],"scene":0,"scenes":[{"nodes":[0]}],"textures":[{"name":"06_1","sampler":0,"source":0},{"name":"01_6","sampler":0,"source":1},{"name":"06_3","sampler":0,"source":2},{"name":"06_2","sampler":0,"source":3},{"name":"06_4","sampler":0,"source":4},{"name":"06_5","sampler":0,"source":5}]}
