{"accessors":[{"name":"TSX000001_low_1_0_positions","componentType":5126,"count":288,"min":[-4.257699966430664,0,-0.18400000035762787],"max":[4.0295000076293945,6.50629997253418,0.13809999823570251],"type":"VEC3","bufferView":0,"byteOffset":0},{"name":"TSX000001_low_1_0_normals","componentType":5126,"count":288,"min":[-1,-1,-1],"max":[1,1,1],"type":"VEC3","bufferView":1,"byteOffset":0},{"name":"TSX000001_low_1_0_texcoords","componentType":5126,"count":288,"min":[-10.1697998046875,-76.4030990600586],"max":[10.1697998046875,11.1697998046875],"type":"VEC2","bufferView":2,"byteOffset":0},{"name":"TSX000001_low_1_0_indices","componentType":5123,"count":840,"min":[0],"max":[287],"type":"SCALAR","bufferView":3,"byteOffset":0},{"name":"TSX000001_low_1_1_positions","componentType":5126,"count":20,"min":[0.7296000123023987,5.511199951171875,0.03099999949336052],"max":[4.331399917602539,7.532899856567383,0.066600002348423],"type":"VEC3","bufferView":0,"byteOffset":3456},{"name":"TSX000001_low_1_1_normals","componentType":5126,"count":20,"min":[-1,-1,0],"max":[1,1,1],"type":"VEC3","bufferView":1,"byteOffset":3456},{"name":"TSX000001_low_1_1_texcoords","componentType":5126,"count":20,"min":[0,0],"max":[1,1],"type":"VEC2","bufferView":2,"byteOffset":2304},{"name":"TSX000001_low_1_1_indices","componentType":5123,"count":30,"min":[0],"max":[19],"type":"SCALAR","bufferView":3,"byteOffset":1680},{"name":"TSX000001_low_1_2_positions","componentType":5126,"count":8,"min":[-4.331399917602539,5.511199951171875,0.03099999949336052],"max":[4.331399917602539,7.532899856567383,0.03099999949336052],"type":"VEC3","bufferView":0,"byteOffset":3696},{"name":"TSX000001_low_1_2_normals","componentType":5126,"count":8,"min":[0,0,-1],"max":[0,0,-1],"type":"VEC3","bufferView":1,"byteOffset":3696},{"name":"TSX000001_low_1_2_texcoords","componentType":5126,"count":8,"min":[0.0005000000237487257,0.0005000000237487257],"max":[0.9994999766349792,0.9994999766349792],"type":"VEC2","bufferView":2,"byteOffset":2464},{"name":"TSX000001_low_1_2_indices","componentType":5123,"count":12,"min":[0],"max":[7],"type":"SCALAR","bufferView":3,"byteOffset":1740},{"name":"TSX000001_low_1_3_positions","componentType":5126,"count":20,"min":[-4.331399917602539,5.511199951171875,0.03099999949336052],"max":[-0.7296000123023987,7.532899856567383,0.066600002348423],"type":"VEC3","bufferView":0,"byteOffset":3792},{"name":"TSX000001_low_1_3_normals","componentType":5126,"count":20,"min":[-1,-1,0],"max":[1,1,1],"type":"VEC3","bufferView":1,"byteOffset":3792},{"name":"TSX000001_low_1_3_texcoords","componentType":5126,"count":20,"min":[0.0005000000237487257,0.0005000000237487257],"max":[0.9994999766349792,0.9994999766349792],"type":"VEC2","bufferView":2,"byteOffset":2528},{"name":"TSX000001_low_1_3_indices","componentType":5123,"count":30,"min":[0],"max":[19],"type":"SCALAR","bufferView":3,"byteOffset":1764},{"name":"TSX000001_low_1_4_positions","componentType":5126,"count":104,"min":[-0.3151000142097473,2.9609999656677246,0.1395999938249588],"max":[0.4754999876022339,3.751699924468994,0.16500000655651093],"type":"VEC3","bufferView":0,"byteOffset":4032},{"name":"TSX000001_low_1_4_normals","componentType":5126,"count":104,"min":[-1,-1,-1],"max":[1,1,0],"type":"VEC3","bufferView":1,"byteOffset":4032},{"name":"TSX000001_low_1_4_texcoords","componentType":5126,"count":104,"min":[0,0],"max":[1,1],"type":"VEC2","bufferView":2,"byteOffset":2688},{"name":"TSX000001_low_1_4_indices","componentType":5123,"count":282,"min":[0],"max":[103],"type":"SCALAR","bufferView":3,"byteOffset":1824},{"name":"TSX000001_low_1_5_positions","componentType":5126,"count":32,"min":[-0.3151000142097473,2.9609999656677246,0.16500000655651093],"max":[0.4754999876022339,3.751699924468994,0.16500000655651093],"type":"VEC3","bufferView":0,"byteOffset":5280},{"name":"TSX000001_low_1_5_normals","componentType":5126,"count":32,"min":[0,0,1],"max":[0,0,1],"type":"VEC3","bufferView":1,"byteOffset":5280},{"name":"TSX000001_low_1_5_texcoords","componentType":5126,"count":32,"min":[0,0],"max":[1,1],"type":"VEC2","bufferView":2,"byteOffset":3520},{"name":"TSX000001_low_1_5_indices","componentType":5123,"count":90,"min":[0],"max":[31],"type":"SCALAR","bufferView":3,"byteOffset":2388}],"asset":{"generator":"obj2gltf","version":"2.0"},"buffers":[{"name":"TSX000001_low","byteLength":273536,"uri":"data:application/octet-stream;base64,"}],"bufferViews":[{"name":"bufferView_0","buffer":0,"byteLength":5664,"byteOffset":0,"byteStride":12,"target":34962},{"name":"bufferView_1","buffer":0,"byteLength":5664,"byteOffset":5664,"byteStride":12,"target":34962},{"name":"bufferView_2","buffer":0,"byteLength":3776,"byteOffset":11328,"byteStride":8,"target":34962},{"name":"bufferView_3","buffer":0,"byteLength":2568,"byteOffset":15104,"target":34963},{"buffer":0,"byteOffset":17672,"byteLength":32195},{"buffer":0,"byteOffset":49867,"byteLength":55568},{"buffer":0,"byteOffset":105435,"byteLength":30952},{"buffer":0,"byteOffset":136387,"byteLength":34249},{"buffer":0,"byteOffset":170636,"byteLength":102897}],"images":[{"name":"05_2","mimeType":"image/jpeg","bufferView":4},{"name":"01_6","mimeType":"image/jpeg","bufferView":5},{"name":"05_1","mimeType":"image/jpeg","bufferView":6},{"name":"13_2","mimeType":"image/jpeg","bufferView":7},{"name":"05_3","mimeType":"image/jpeg","bufferView":8}],"materials":[{"name":"08___Default","pbrMetallicRoughness":{"baseColorFactor":[0.8431,0.8431,0.8431,1],"metallicFactor":0,"roughnessFactor":0.99},"emissiveFactor":[0,0,0],"alphaMode":"OPAQUE","doubleSided":false},{"name":"Material__28","pbrMetallicRoughness":{"baseColorTexture":{"index":0},"baseColorFactor":[1,1,1,1],"metallicFactor":0,"roughnessFactor":0.99},"emissiveFactor":[0,0,0],"alphaMode":"OPAQUE","doubleSided":false},{"name":"Material__63","pbrMetallicRoughness":{"baseColorTexture":{"index":1},"baseColorFactor":[1,1,1,1],"metallicFactor":0,"roughnessFactor":0.99},"emissiveFactor":[0,0,0],"alphaMode":"OPAQUE","doubleSided":false},{"name":"Material__27","pbrMetallicRoughness":{"baseColorTexture":{"index":2},"baseColorFactor":[1,1,1,1],"metallicFactor":0,"roughnessFactor":0.99},"emissiveFactor":[0,0,0],"alphaMode":"OPAQUE","doubleSided":false},{"name":"Material__1796902389","pbrMetallicRoughness":{"baseColorTexture":{"index":3},"baseColorFactor":[1,1,1,1],"metallicFactor":0,"roughnessFactor":0.99},"emissiveFactor":[0,0,0],"alphaMode":"OPAQUE","doubleSided":false},{"name":"Material__1796902377","pbrMetallicRoughness":{"baseColorTexture":{"index":4},"baseColorFactor":[1,1,1,1],"metallicFactor":0,"roughnessFactor":0.99},"emissiveFactor":[0,0,0],"alphaMode":"OPAQUE","doubleSided":false}],"meshes":[{"name":"TSX000001_low_1","primitives":[{"attributes":{"POSITION":0,"NORMAL":1,"TEXCOORD_0":2},"indices":3,"material":0,"mode":4},{"attributes":{"POSITION":4,"NORMAL":5,"TEXCOORD_0":6},"indices":7,"material":1,"mode":4},{"attributes":{"POSITION":8,"NORMAL":9,"TEXCOORD_0":10},"indices":11,"material":2,"mode":4},{"attributes":{"POSITION":12,"NORMAL":13,"TEXCOORD_0":14},"indices":15,"material":3,"mode":4},{"attributes":{"POSITION":16,"NORMAL":17,"TEXCOORD_0":18},"indices":19,"material":4,"mode":4},{"attributes":{"POSITION":20,"NORMAL":21,"TEXCOORD_0":22},"indices":23,"material":5,"mode":4}]}],"nodes":[{"name":"TSX000001_low","mesh":0}],"samplers":[{"magFilter":9729,"minFilter":9986,"wrapS":10497,"wrapT":10497}],"scene":0,"scenes":[{"nodes":[0]}],"textures":[{"name":"05_2","sampler":0,"source":0},{"name":"01_6","sampler":0,"source":1},{"name":"05_1","sampler":0,"source":2},{"name":"13_2","sampler":0,"source":3},{"name":"05_3","sampler":0,"source":4}]}
