<?xml version="1.0" encoding="UTF-8"?>
<svg width="24px" height="24px" viewBox="0 0 24 24" version="1.1" xmlns="http://www.w3.org/2000/svg" xmlns:xlink="http://www.w3.org/1999/xlink">
    <title>icon</title>
    <defs>
        <filter id="filter-1">
            <feColorMatrix in="SourceGraphic" type="matrix" values="0 0 0 0 0.207843 0 0 0 0 0.364706 0 0 0 0 1.000000 0 0 0 1.000000 0"></feColorMatrix>
        </filter>
    </defs>
    <g id="页面-1" stroke="none" stroke-width="1" fill="none" fill-rule="evenodd">
        <g id="项目总览" transform="translate(-236.000000, -443.000000)">
            <g id="标题" transform="translate(224.000000, 430.000000)">
                <g id="icon" transform="translate(12.000000, 13.000000)">
                    <rect id="矩形" fill="#FFFFFF" opacity="0" x="0" y="0" width="24" height="24"></rect>
                    <g filter="url(#filter-1)" id="80%">
                        <g transform="translate(5.000000, 4.000000)" id="编组" fill="#09121F" fill-rule="nonzero">
                            <path d="M13.6,16 L0.8,16 C0.587824,16 0.384344,15.91568 0.234312,15.76568 C0.084288,15.61568 0,15.41216 0,15.2 L0,0.8 C0,0.587824 0.084288,0.384344 0.234312,0.234312 C0.384344,0.084288 0.587824,0 0.8,0 L13.6,0 C13.81216,0 14.01568,0.084288 14.16568,0.234312 C14.31568,0.384344 14.4,0.587824 14.4,0.8 L14.4,15.2 C14.4,15.41216 14.31568,15.61568 14.16568,15.76568 C14.01568,15.91568 13.81216,16 13.6,16 Z M4,4 L4,5.6 L10.4,5.6 L10.4,4 L4,4 Z M4,7.2 L4,8.8 L10.4,8.8 L10.4,7.2 L4,7.2 Z M4,10.4 L4,12 L10.4,12 L10.4,10.4 L4,10.4 Z" id="形状"></path>
                        </g>
                    </g>
                </g>
            </g>
        </g>
    </g>
</svg>