<?xml version="1.0" encoding="UTF-8"?>
<svg width="24px" height="24px" viewBox="0 0 24 24" version="1.1" xmlns="http://www.w3.org/2000/svg" xmlns:xlink="http://www.w3.org/1999/xlink">
    <title>icon</title>
    <defs>
        <filter id="filter-1">
            <feColorMatrix in="SourceGraphic" type="matrix" values="0 0 0 0 0.207843 0 0 0 0 0.364706 0 0 0 0 1.000000 0 0 0 1.000000 0"></feColorMatrix>
        </filter>
    </defs>
    <g id="页面-1" stroke="none" stroke-width="1" fill="none" fill-rule="evenodd">
        <g id="项目总览" transform="translate(-1460.000000, -617.000000)">
            <g id="标题" transform="translate(1448.000000, 604.000000)">
                <g id="icon" transform="translate(12.000000, 13.000000)">
                    <rect id="矩形" fill="#FFFFFF" opacity="0" x="0" y="0" width="24" height="24"></rect>
                    <g filter="url(#filter-1)" id="80%">
                        <g transform="translate(5.000000, 4.000000)" id="编组" fill="#658DE1" fill-rule="nonzero">
                            <path d="M7.20006,16.39992 C7.20006,16.39992 0.40005,14.03028 0.40005,9.8535 L0.40005,2.823102 L7.20006,0.3999 L14.00004,2.823102 L14.00004,9.85188 C14.00004,14.02788 7.20006,16.39992 7.20006,16.39992 Z M7.20006,3.9998997 C6.56352,4.000218 5.9532,4.253382 5.50332,4.703694 C5.0535,5.154 4.80096,5.76456 4.80125973,6.4011 C4.80156,7.03764 5.0547,7.64796 5.50506,8.09778 C5.95536,8.54766 6.56592,8.8002 7.20246,8.79990027 C7.83894,8.7996 8.44932,8.5464 8.89914,8.0961 C9.34902,7.6458 9.60156,7.03524 9.60126027,6.3987 C9.60096,5.76216 9.34776,5.15184 8.89746,4.701996 C8.44716,4.252134 7.83654,3.999582 7.20006,3.9998997 Z M8.00004,9.99989907 L6.39846,9.99989907 C5.78352,10.0002 5.17698,10.14252 4.62606,10.41576 C4.0752,10.689 3.594828,11.08572 3.22245,11.57508 C4.59846,13.27512 7.20006,14.20788 7.20006,14.20788 C7.20006,14.20788 9.80244,13.27428 11.17602,11.57268 C10.80378,11.08344 10.32336,10.68684 9.77238,10.41402 C9.22146,10.1412 8.61486,9.99948 8.00004,9.99989907 Z" id="形状"></path>
                        </g>
                    </g>
                </g>
            </g>
        </g>
    </g>
</svg>