<?xml version="1.0" encoding="UTF-8"?>
<svg width="24px" height="24px" viewBox="0 0 24 24" version="1.1" xmlns="http://www.w3.org/2000/svg" xmlns:xlink="http://www.w3.org/1999/xlink">
    <title>icon</title>
    <defs>
        <filter id="filter-1">
            <feColorMatrix in="SourceGraphic" type="matrix" values="0 0 0 0 0.207843 0 0 0 0 0.364706 0 0 0 0 1.000000 0 0 0 1.000000 0"></feColorMatrix>
        </filter>
    </defs>
    <g id="页面-1" stroke="none" stroke-width="1" fill="none" fill-rule="evenodd">
        <g id="项目总览" transform="translate(-236.000000, -139.000000)">
            <g id="标题" transform="translate(224.000000, 126.000000)">
                <g id="icon" transform="translate(12.000000, 13.000000)">
                    <rect id="矩形" fill="#FFFFFF" opacity="0" x="0" y="0" width="24" height="24"></rect>
                    <g filter="url(#filter-1)" id="80%">
                        <g transform="translate(5.000000, 4.000000)" id="编组" fill="#09121F" fill-rule="nonzero">
                            <path d="M3.2,3.2 L3.2,0.8 C3.2,0.587824 3.284288,0.384344 3.434312,0.234312 C3.584344,0.084288 3.787824,0 4,0 L13.6,0 C13.81216,0 14.01568,0.084288 14.16568,0.234312 C14.31568,0.384344 14.4,0.587824 14.4,0.8 L14.4,12 C14.4,12.21216 14.31568,12.41568 14.16568,12.56568 C14.01568,12.71568 13.81216,12.8 13.6,12.8 L11.2,12.8 L11.2,15.2 C11.2,15.6416 10.84,16.0000147 10.3944,16.0000147 L0.8056,16.0000147 C0.700104,16.00064 0.59552,15.9804 0.497856,15.94048 C0.4002,15.90056 0.311384,15.84176 0.236528,15.76744 C0.161664,15.69312 0.102232,15.60472 0.06164,15.50728 C0.021056,15.40992 0,15.30552 0,15.2 L0.0024,4 C0.0024,3.5584 0.3624,3.2 0.808,3.2 L3.2,3.2 Z M4.8,3.2 L11.2,3.2 L11.2,11.2 L12.8,11.2 L12.8,1.6 L4.8,1.6 L4.8,3.2 Z M3.2,7.2 L3.2,8.8 L8,8.8 L8,7.2 L3.2,7.2 Z M3.2,10.4 L3.2,12 L8,12 L8,10.4 L3.2,10.4 Z" id="形状"></path>
                        </g>
                    </g>
                </g>
            </g>
        </g>
    </g>
</svg>