<?xml version="1.0" encoding="UTF-8"?>
<svg width="24px" height="24px" viewBox="0 0 24 24" version="1.1" xmlns="http://www.w3.org/2000/svg" xmlns:xlink="http://www.w3.org/1999/xlink">
    <title>icon</title>
    <defs>
        <filter id="filter-1">
            <feColorMatrix in="SourceGraphic" type="matrix" values="0 0 0 0 0.207843 0 0 0 0 0.364706 0 0 0 0 1.000000 0 0 0 1.000000 0"></feColorMatrix>
        </filter>
    </defs>
    <g id="页面-1" stroke="none" stroke-width="1" fill="none" fill-rule="evenodd">
        <g id="项目总览" transform="translate(-1460.000000, -139.000000)">
            <g id="标题" transform="translate(1448.000000, 126.000000)">
                <g id="icon" transform="translate(12.000000, 13.000000)">
                    <rect id="矩形" fill="#FFFFFF" opacity="0" x="0" y="0" width="24" height="24"></rect>
                    <g filter="url(#filter-1)" id="80%">
                        <g transform="translate(4.000000, 4.000000)" id="编组" fill="#09121F" fill-rule="nonzero">
                            <path d="M13.6,16 L2.4,16 C1.76348,16 1.153032,15.74712 0.702944,15.29704 C0.252856,14.84696 0,14.23648 0,13.6 L0,0.8 C0,0.587824 0.084288,0.384344 0.234312,0.234312 C0.384344,0.084288 0.587824,0 0.8,0 L12,0 C12.21216,0 12.41568,0.084288 12.56568,0.234312 C12.71568,0.384344 12.8,0.587824 12.8,0.8 L12.8,6.4 L16,6.4 L16,13.6 C16,14.23648 15.74712,14.84696 15.29704,15.29704 C14.84696,15.74712 14.23648,16 13.6,16 Z M12.8,8 L12.8,13.6 C12.8,13.81216 12.88432,14.01568 13.03432,14.16568 C13.18432,14.31568 13.38784,14.4 13.6,14.4 C13.81216,14.4 14.01568,14.31568 14.16568,14.16568 C14.31568,14.01568 14.4,13.81216 14.4,13.6 L14.4,8 L12.8,8 Z M2.4,3.2 L2.4,8 L7.2,8 L7.2,3.2 L2.4,3.2 Z M2.4,8.8 L2.4,10.4 L10.4,10.4 L10.4,8.8 L2.4,8.8 Z M2.4,11.2 L2.4,12.8 L10.4,12.8 L10.4,11.2 L2.4,11.2 Z M4,4.8 L5.6,4.8 L5.6,6.4 L4,6.4 L4,4.8 Z" id="形状"></path>
                        </g>
                    </g>
                </g>
            </g>
        </g>
    </g>
</svg>