{
    "asset": {
        "generator": "COLLADA2GLTF",
        "version": "2.0"
    },
    "scene": 0,
    "scenes": [
        {
            "nodes": [
                0
            ]
        }
    ],
    "nodes": [
        {
            "children": [
                1
            ],
            "matrix": [
                1.0,
                0.0,
                0.0,
                0.0,
                0.0,
                0.0,
                -1.0,
                0.0,
                0.0,
                1.0,
                0.0,
                0.0,
                0.0,
                0.0,
                0.0,
                1.0
            ]
        },
        {
            "mesh": 0,
            "matrix": [
                1.0,
                0.0,
                0.0,
                0.0,
                0.0,
                1.0,
                0.0,
                0.0,
                0.0,
                0.0,
                1.0,
                0.0,
                1.5094339847564698,
                -4.905661106109619,
                0.0,
                1.0
            ]
        }
    ],
    "meshes": [
        {
            "primitives": [
                {
                    "attributes": {
                        "NORMAL": 1,
                        "POSITION": 2,
                        "TEXCOORD_0": 3
                    },
                    "indices": 0,
                    "mode": 4,
                    "material": 0
                },
                {
                    "attributes": {
                        "NORMAL": 5,
                        "POSITION": 6,
                        "TEXCOORD_0": 7
                    },
                    "indices": 4,
                    "mode": 4,
                    "material": 1
                },
                {
                    "attributes": {
                        "NORMAL": 9,
                        "POSITION": 10,
                        "TEXCOORD_0": 11
                    },
                    "indices": 8,
                    "mode": 4,
                    "material": 2
                },
                {
                    "attributes": {
                        "NORMAL": 13,
                        "POSITION": 14,
                        "TEXCOORD_0": 15
                    },
                    "indices": 12,
                    "mode": 4,
                    "material": 3
                },
                {
                    "attributes": {
                        "NORMAL": 17,
                        "POSITION": 18,
                        "TEXCOORD_0": 19
                    },
                    "indices": 16,
                    "mode": 4,
                    "material": 4
                }
            ],
            "name": "Box01"
        }
    ],
    "accessors": [
        {
            "bufferView": 0,
            "byteOffset": 0,
            "componentType": 5123,
            "count": 12,
            "max": [
                11
            ],
            "min": [
                0
            ],
            "type": "SCALAR"
        },
        {
            "bufferView": 1,
            "byteOffset": 0,
            "componentType": 5126,
            "count": 12,
            "max": [
                0.0,
                0.4548434019088745,
                0.8905715346336365
            ],
            "min": [
                0.0,
                -0.4548434019088745,
                0.8905714154243469
            ],
            "type": "VEC3"
        },
        {
            "bufferView": 1,
            "byteOffset": 144,
            "componentType": 5126,
            "count": 12,
            "max": [
                6.999369621276856,
                2.17811393737793,
                4.221464157104492
            ],
            "min": [
                -4.200000286102295,
                -2.17811393737793,
                3.109030961990357
            ],
            "type": "VEC3"
        },
        {
            "bufferView": 2,
            "byteOffset": 0,
            "componentType": 5126,
            "count": 12,
            "max": [
                6.014171123504639,
                1.0
            ],
            "min": [
                0.0,
                0.1847512125968933
            ],
            "type": "VEC2"
        },
        {
            "bufferView": 0,
            "byteOffset": 24,
            "componentType": 5123,
            "count": 6,
            "max": [
                3
            ],
            "min": [
                0
            ],
            "type": "SCALAR"
        },
        {
            "bufferView": 1,
            "byteOffset": 288,
            "componentType": 5126,
            "count": 4,
            "max": [
                0.0,
                -1.0,
                0.0
            ],
            "min": [
                0.0,
                -1.0,
                0.0
            ],
            "type": "VEC3"
        },
        {
            "bufferView": 1,
            "byteOffset": 336,
            "componentType": 5126,
            "count": 4,
            "max": [
                6.799369812011719,
                -2.0,
                3.0
            ],
            "min": [
                -4.0,
                -2.0,
                0.0
            ],
            "type": "VEC3"
        },
        {
            "bufferView": 2,
            "byteOffset": 96,
            "componentType": 5126,
            "count": 4,
            "max": [
                0.9995005130767822,
                0.9995003938674928
            ],
            "min": [
                0.0004995469935238361,
                0.0004996061325073242
            ],
            "type": "VEC2"
        },
        {
            "bufferView": 0,
            "byteOffset": 36,
            "componentType": 5123,
            "count": 18,
            "max": [
                9
            ],
            "min": [
                0
            ],
            "type": "SCALAR"
        },
        {
            "bufferView": 1,
            "byteOffset": 384,
            "componentType": 5126,
            "count": 10,
            "max": [
                1.0,
                0.0,
                0.0
            ],
            "min": [
                -1.0,
                0.0,
                0.0
            ],
            "type": "VEC3"
        },
        {
            "bufferView": 1,
            "byteOffset": 504,
            "componentType": 5126,
            "count": 10,
            "max": [
                6.799369812011719,
                2.0,
                4.021463871002197
            ],
            "min": [
                -4.0,
                -2.0,
                0.0
            ],
            "type": "VEC3"
        },
        {
            "bufferView": 2,
            "byteOffset": 128,
            "componentType": 5126,
            "count": 10,
            "max": [
                9.866246223449709,
                2.0
            ],
            "min": [
                3.59978985786438,
                0.659511923789978
            ],
            "type": "VEC2"
        },
        {
            "bufferView": 0,
            "byteOffset": 72,
            "componentType": 5123,
            "count": 6,
            "max": [
                3
            ],
            "min": [
                0
            ],
            "type": "SCALAR"
        },
        {
            "bufferView": 1,
            "byteOffset": 624,
            "componentType": 5126,
            "count": 4,
            "max": [
                0.0,
                1.0,
                0.0
            ],
            "min": [
                0.0,
                1.0,
                0.0
            ],
            "type": "VEC3"
        },
        {
            "bufferView": 1,
            "byteOffset": 672,
            "componentType": 5126,
            "count": 4,
            "max": [
                6.799369812011719,
                2.0,
                3.0
            ],
            "min": [
                -4.0,
                2.0,
                0.0
            ],
            "type": "VEC3"
        },
        {
            "bufferView": 2,
            "byteOffset": 208,
            "componentType": 5126,
            "count": 4,
            "max": [
                2.998502016067505,
                0.9995005130767822
            ],
            "min": [
                0.001498461002483964,
                0.0004994869232177734
            ],
            "type": "VEC2"
        },
        {
            "bufferView": 0,
            "byteOffset": 84,
            "componentType": 5123,
            "count": 72,
            "max": [
                53
            ],
            "min": [
                0
            ],
            "type": "SCALAR"
        },
        {
            "bufferView": 1,
            "byteOffset": 720,
            "componentType": 5126,
            "count": 54,
            "max": [
                1.0,
                1.0,
                0.0
            ],
            "min": [
                -1.0,
                -1.0,
                -0.8905715346336365
            ],
            "type": "VEC3"
        },
        {
            "bufferView": 1,
            "byteOffset": 1368,
            "componentType": 5126,
            "count": 54,
            "max": [
                6.999369621276856,
                2.17811393737793,
                4.221464157104492
            ],
            "min": [
                -4.200000286102295,
                -2.17811393737793,
                2.9090309143066408
            ],
            "type": "VEC3"
        },
        {
            "bufferView": 2,
            "byteOffset": 240,
            "componentType": 5126,
            "count": 54,
            "max": [
                6.014169692993164,
                1.0666667222976685
            ],
            "min": [
                -2.9041519165039064,
                0.251417875289917
            ],
            "type": "VEC2"
        }
    ],
    "materials": [
        {
            "pbrMetallicRoughness": {
                "baseColorTexture": {
                    "index": 0
                },
                "metallicFactor": 0.0
            },
            "emissiveFactor": [
                0.0,
                0.0,
                0.0
            ],
            "occlusionTexture": {
                "index": 0
            },
            "name": "wc005"
        },
        {
            "pbrMetallicRoughness": {
                "baseColorTexture": {
                    "index": 1
                },
                "metallicFactor": 0.0
            },
            "emissiveFactor": [
                0.0,
                0.0,
                0.0
            ],
            "occlusionTexture": {
                "index": 1
            },
            "name": "wc001"
        },
        {
            "pbrMetallicRoughness": {
                "baseColorTexture": {
                    "index": 2
                },
                "metallicFactor": 0.0
            },
            "emissiveFactor": [
                0.0,
                0.0,
                0.0
            ],
            "occlusionTexture": {
                "index": 2
            },
            "name": "wc002"
        },
        {
            "pbrMetallicRoughness": {
                "baseColorTexture": {
                    "index": 3
                },
                "metallicFactor": 0.0
            },
            "emissiveFactor": [
                0.0,
                0.0,
                0.0
            ],
            "occlusionTexture": {
                "index": 3
            },
            "name": "wc003"
        },
        {
            "pbrMetallicRoughness": {
                "baseColorTexture": {
                    "index": 4
                },
                "metallicFactor": 0.0
            },
            "emissiveFactor": [
                0.0,
                0.0,
                0.0
            ],
            "occlusionTexture": {
                "index": 4
            },
            "name": "wc004"
        }
    ],
    "textures": [
        {
            "sampler": 0,
            "source": 0
        },
        {
            "sampler": 0,
            "source": 1
        },
        {
            "sampler": 0,
            "source": 2
        },
        {
            "sampler": 0,
            "source": 3
        },
        {
            "sampler": 0,
            "source": 4
        }
    ],
    "images": [
        {
            "uri": "data:image/jpeg;base64,"
        },
        {
            "uri": "data:image/jpeg;base64,"
        },
        {
            "uri": "data:image/jpeg;base64,"
        },
        {
            "uri": "data:image/jpeg;base64,"
        },
        {
            "uri": "data:image/jpeg;base64,"
        }
    ],
    "samplers": [
        {
            "magFilter": 9729,
            "minFilter": 9986,
            "wrapS": 10497,
            "wrapT": 10497
        }
    ],
    "bufferViews": [
        {
            "buffer": 0,
            "byteOffset": 2688,
            "byteLength": 228,
            "target": 34963
        },
        {
            "buffer": 0,
            "byteOffset": 0,
            "byteLength": 2016,
            "byteStride": 12,
            "target": 34962
        },
        {
            "buffer": 0,
            "byteOffset": 2016,
            "byteLength": 672,
            "byteStride": 8,
            "target": 34962
        }
    ],
    "buffers": [
        {
            "byteLength": 2916,
            "uri": "data:application/octet-stream;base64,"
        }
    ]
}
